<svg id="visual" viewBox="0 0 900 600" width="900" height="600" xmlns="http://www.w3.org/2000/svg" xmlns:xlink="http://www.w3.org/1999/xlink" version="1.1"><path d="M0 231L21.5 238.8C43 246.7 86 262.3 128.8 274.2C171.7 286 214.3 294 257.2 300C300 306 343 310 385.8 305C428.7 300 471.3 286 514.2 271C557 256 600 240 642.8 239C685.7 238 728.3 252 771.2 268.2C814 284.3 857 302.7 878.5 311.8L900 321L900 0L878.5 0C857 0 814 0 771.2 0C728.3 0 685.7 0 642.8 0C600 0 557 0 514.2 0C471.3 0 428.7 0 385.8 0C343 0 300 0 257.2 0C214.3 0 171.7 0 128.8 0C86 0 43 0 21.5 0L0 0Z" fill="#fa7268"></path><path d="M0 132L21.5 134.3C43 136.7 86 141.3 128.8 149C171.7 156.7 214.3 167.3 257.2 186.3C300 205.3 343 232.7 385.8 240.8C428.7 249 471.3 238 514.2 228.3C557 218.7 600 210.3 642.8 196.5C685.7 182.7 728.3 163.3 771.2 172C814 180.7 857 217.3 878.5 235.7L900 254L900 0L878.5 0C857 0 814 0 771.2 0C728.3 0 685.7 0 642.8 0C600 0 557 0 514.2 0C471.3 0 428.7 0 385.8 0C343 0 300 0 257.2 0C214.3 0 171.7 0 128.8 0C86 0 43 0 21.5 0L0 0Z" fill="#f74c94"></path><path d="M0 110L21.5 113.7C43 117.3 86 124.7 128.8 130.5C171.7 136.3 214.3 140.7 257.2 151.3C300 162 343 179 385.8 173.8C428.7 168.7 471.3 141.3 514.2 124C557 106.7 600 99.3 642.8 99C685.7 98.7 728.3 105.3 771.2 115.5C814 125.7 857 139.3 878.5 146.2L900 153L900 0L878.5 0C857 0 814 0 771.2 0C728.3 0 685.7 0 642.8 0C600 0 557 0 514.2 0C471.3 0 428.7 0 385.8 0C343 0 300 0 257.2 0C214.3 0 171.7 0 128.8 0C86 0 43 0 21.5 0L0 0Z" fill="#c74ace"></path><path d="M0 70L21.5 76.5C43 83 86 96 128.8 102.3C171.7 108.7 214.3 108.3 257.2 107.3C300 106.3 343 104.7 385.8 95.3C428.7 86 471.3 69 514.2 68.7C557 68.3 600 84.7 642.8 86.7C685.7 88.7 728.3 76.3 771.2 72.2C814 68 857 72 878.5 74L900 76L900 0L878.5 0C857 0 814 0 771.2 0C728.3 0 685.7 0 642.8 0C600 0 557 0 514.2 0C471.3 0 428.7 0 385.8 0C343 0 300 0 257.2 0C214.3 0 171.7 0 128.8 0C86 0 43 0 21.5 0L0 0Z" fill="#0066ff"></path></svg>