<svg xmlns="http://www.w3.org/2000/svg" version="1.1" xmlns:xlink="http://www.w3.org/1999/xlink" xmlns:svgjs="http://svgjs.dev/svgjs" width="2000" height="358" viewBox="0 0 2000 358"><g transform="matrix(1,0,0,1,-1.2121212121212466,0.7132664796703523)"><svg viewBox="0 0 396 71" data-background-color="#ffffff" preserveAspectRatio="xMidYMid meet" height="358" width="2000" xmlns="http://www.w3.org/2000/svg" xmlns:xlink="http://www.w3.org/1999/xlink"><g id="tight-bounds" transform="matrix(1,0,0,1,0.2400000000000091,-0.14145787725306036)"><svg viewBox="0 0 395.52 71.2829157545061" height="71.2829157545061" width="395.52"><g><svg viewBox="0 0 503.2374483221958 90.69638105092967" height="71.2829157545061" width="395.52"><g transform="matrix(1,0,0,1,107.71744832219584,12.534738625707362)"><svg viewBox="0 0 395.52 65.62690379951495" height="65.62690379951495" width="395.52"><g id="textblocktransform"><svg viewBox="0 0 395.52 65.62690379951495" height="65.62690379951495" width="395.52" id="textblock"><g><svg viewBox="0 0 395.52 65.62690379951495" height="65.62690379951495" width="395.52"><g transform="matrix(1,0,0,1,0,0)"><svg width="395.52" viewBox="4.54 -39.84 241.58 40.080000000000005" height="65.62690379951495" data-palette-color="url(#11d42264-15c2-4dc6-a7f4-f6498afecd56)"></svg></g></svg></g></svg></g></svg></g><g><svg viewBox="0 0 92.22451138082154 90.69638105092967" height="90.69638105092967" width="92.22451138082154"><g><svg xmlns="http://www.w3.org/2000/svg" xmlns:xlink="http://www.w3.org/1999/xlink" version="1.1" x="0" y="0" viewBox="3.5478369431501866 6.709309064314173 93.45216305684981 91.90369093568583" enable-background="new 0 0 100 100" xml:space="preserve" height="90.69638105092967" width="92.22451138082154" class="icon-icon-0" data-fill-palette-color="accent" id="icon-0"></svg></g></svg></g></svg></g><defs></defs><mask id="782ccb74-0024-4f35-80df-9657e5f0d217"><g id="SvgjsG1281"><svg viewBox="0 0 395.52 71.2829157545061" height="71.2829157545061" width="395.52"><g><svg viewBox="0 0 503.2374483221958 90.69638105092967" height="71.2829157545061" width="395.52"><g transform="matrix(1,0,0,1,107.71744832219584,12.534738625707362)"><svg viewBox="0 0 395.52 65.62690379951495" height="65.62690379951495" width="395.52"><g id="SvgjsG1280"><svg viewBox="0 0 395.52 65.62690379951495" height="65.62690379951495" width="395.52" id="SvgjsSvg1279"><g><svg viewBox="0 0 395.52 65.62690379951495" height="65.62690379951495" width="395.52"><g transform="matrix(1,0,0,1,0,0)"><svg width="395.52" viewBox="4.54 -39.84 241.58 40.080000000000005" height="65.62690379951495" data-palette-color="url(#11d42264-15c2-4dc6-a7f4-f6498afecd56)"><path d="M4.54-35.99L10.5-35.99 10.5-4.44 27.05-4.44 27.05 0 4.54 0 4.54-35.99ZM45.51-23.19L45.51-27.78Q48.14-27.54 50.27-26.37 52.39-25.2 53.9-23.34 55.42-21.48 56.22-19.09 57.03-16.7 57.03-14.11L57.03-14.11Q57.03-12.94 56.88-11.77L56.88-11.77 40.13-11.77 40.13-16.06 51.41-16.06Q51.41-17.33 51-18.51 50.58-19.68 49.78-20.68 48.97-21.68 47.9-22.36 46.82-23.05 45.51-23.19L45.51-23.19ZM45.31-4.59L45.31-4.59Q45.85-4.59 46.65-4.71 47.46-4.83 48.36-5.15 49.27-5.47 50.17-5.96 51.07-6.45 51.76-7.13L51.76-7.13 53.9-3.86Q52.29-1.86 50.14-0.83 48 0.2 44.68 0.2L44.68 0.2Q41.99 0.2 39.65-0.9 37.3-2 35.64-3.91 33.98-5.81 33.01-8.35 32.03-10.89 32.03-13.82L32.03-13.82Q32.03-16.6 32.93-19.09 33.84-21.58 35.4-23.46 36.96-25.34 39.04-26.51 41.11-27.69 43.5-27.83L43.5-27.83 43.5-23.14Q41.7-22.8 40.52-21.68 39.35-20.56 38.69-19.12 38.03-17.68 37.77-16.16 37.5-14.65 37.5-13.57L37.5-13.57Q37.5-11.67 37.96-10.03 38.43-8.4 39.4-7.2 40.38-6.01 41.82-5.3 43.26-4.59 45.31-4.59ZM69.92-8.3L69.92-8.3Q69.92-6.1 70.82-5.03 71.72-3.96 73.43-3.76L73.43-3.76 73.43 0.2Q73.24 0.24 72.8 0.24L72.8 0.24Q71.14 0.24 69.6-0.2 68.06-0.63 66.89-1.61 65.72-2.59 65.06-4.2 64.4-5.81 64.4-8.15L64.4-8.15Q64.4-10.4 65.35-12.04 66.3-13.67 67.79-14.72 69.28-15.77 71.19-16.28 73.09-16.8 75.04-16.8L75.04-16.8 77.19-16.8 77.19-13.33 76.12-13.33Q75.14-13.33 74.07-13.13 72.99-12.94 72.07-12.4 71.14-11.87 70.53-10.86 69.92-9.86 69.92-8.3ZM85.1-8.54L85.1-8.15Q85.1-7.76 85.15-7.01 85.2-6.25 85.35-5.47 85.49-4.69 85.81-4.05 86.13-3.42 86.66-3.22L86.66-3.22 85.1 0.05Q84.47 0.05 83.76-0.24 83.05-0.54 82.39-1.07 81.73-1.61 81.27-2.27 80.81-2.93 80.56-3.71L80.56-3.71Q80.07-2.49 78.63-1.54 77.19-0.59 75.43-0.15L75.43-0.15 75.43-3.86Q76.61-4.1 77.56-4.81 78.51-5.52 79.19-6.49L79.19-6.49 79.19-16.8Q79.19-19.19 78.95-20.61 78.71-22.02 78.12-22.68 77.53-23.34 76.68-23.51 75.83-23.68 74.65-23.68L74.65-23.68Q73.58-23.68 72.63-23.41 71.67-23.14 70.87-22.78 70.06-22.41 69.45-21.97 68.84-21.53 68.55-21.29L68.55-21.29 66.35-24.66Q66.84-25.2 67.82-25.76 68.79-26.32 70.06-26.76 71.33-27.2 72.82-27.47 74.31-27.73 75.92-27.73L75.92-27.73Q77.39-27.73 78.78-27.44 80.17-27.15 81.32-26.46 82.47-25.78 83.32-24.63 84.17-23.49 84.52-21.78L84.52-21.78Q84.86-20.07 84.98-18.33 85.1-16.6 85.1-14.89L85.1-14.89 85.1-8.54ZM94.43-27.54L99.7-27.54 100.33-24.71 100.33-9.77 100.33-9.67 100.33 0 94.43 0 94.43-27.54ZM102.34-21.34L102.34-26.32Q103.56-27 105.27-27.37 106.97-27.73 109.9-27.73L109.9-27.73 109.9-21.58Q108.54-21.97 106.58-22.02L106.58-22.02Q105.51-22.02 104.41-21.85 103.31-21.68 102.34-21.34L102.34-21.34ZM116.2-27.54L121.47-27.54 122.11-24.76 122.11 0 116.2 0 116.2-27.54ZM136.71-24.51L136.71-24.51Q137.54-23.68 138-22.58 138.47-21.48 138.69-20.29 138.91-19.09 138.95-17.87 139-16.65 139-15.48L139-15.48 139-0.98 139 0 133.05 0 133.05-14.99Q133.05-16.65 132.9-18.16 132.75-19.68 132.22-20.85 131.68-22.02 130.75-22.68 129.82-23.34 128.16-23.34L128.16-23.34Q127.48-23.34 126.33-23.12 125.19-22.9 124.11-22.41L124.11-22.41 124.11-26.17Q125.43-26.86 126.97-27.34 128.51-27.83 129.97-27.83L129.97-27.83Q132.17-27.83 133.68-26.93 135.2-26.03 136.71-24.51ZM147.5-35.99L153.45-35.99 153.45-4.44 170.01-4.44 170.01 0 147.5 0 147.5-35.99ZM181.58-27.54L181.58 0 175.62 0 175.62-27.54 181.58-27.54ZM182.11-36.33L182.11-36.33Q182.11-34.86 181.09-33.86 180.06-32.86 178.6-32.86L178.6-32.86Q177.13-32.86 176.13-33.89 175.13-34.91 175.13-36.33L175.13-36.33Q175.13-37.79 176.16-38.82 177.18-39.84 178.6-39.84L178.6-39.84Q180.06-39.84 181.09-38.82 182.11-37.79 182.11-36.33ZM189.88-27.54L195.15-27.54 195.78-24.76 195.78 0 189.88 0 189.88-27.54ZM210.38-24.51L210.38-24.51Q211.21-23.68 211.68-22.58 212.14-21.48 212.36-20.29 212.58-19.09 212.63-17.87 212.68-16.65 212.68-15.48L212.68-15.48 212.68-0.98 212.68 0 206.72 0 206.72-14.99Q206.72-16.65 206.57-18.16 206.43-19.68 205.89-20.85 205.35-22.02 204.43-22.68 203.5-23.34 201.84-23.34L201.84-23.34Q201.15-23.34 200.01-23.12 198.86-22.9 197.79-22.41L197.79-22.41 197.79-26.17Q199.1-26.86 200.64-27.34 202.18-27.83 203.64-27.83L203.64-27.83Q205.84-27.83 207.36-26.93 208.87-26.03 210.38-24.51ZM229.42-13.82L220.39-27.54 227.08-27.54 232.21-18.51 232.21-8.25 227.23 0 220.44 0 229.42-13.82ZM239.43-27.54L246.12-27.54 237.09-13.82 246.07 0 239.29 0 234.21-8.89 234.21-19.29 239.43-27.54Z" opacity="1" transform="matrix(1,0,0,1,0,0)" fill="white" class="wordmark-text-0" id="SvgjsPath1278"></path></svg></g></svg></g></svg></g></svg></g><g><svg viewBox="0 0 92.22451138082154 90.69638105092967" height="90.69638105092967" width="92.22451138082154"><g><svg xmlns="http://www.w3.org/2000/svg" xmlns:xlink="http://www.w3.org/1999/xlink" version="1.1" x="0" y="0" viewBox="3.5478369431501866 6.709309064314173 93.45216305684981 91.90369093568583" enable-background="new 0 0 100 100" xml:space="preserve" height="90.69638105092967" width="92.22451138082154" class="icon-icon-0" data-fill-palette-color="accent" id="SvgjsSvg1277"><g fill="black"><g fill="black"><path d="M43.692 60.428L31.006 73.113C26.391 77.726 18.552 77.398 13.532 72.379 8.512 67.358 8.182 59.522 12.798 54.904L27.172 40.53C31.787 35.915 39.626 36.245 44.646 41.264 46.783 43.401 48.061 46.047 48.478 48.739 50.338 48.545 52.092 47.783 53.457 46.419L53.986 45.89A19.54 19.54 0 0 0 48.887 37.023C41.528 29.663 29.883 29.334 22.929 36.289L8.556 50.662C1.601 57.615 1.931 69.262 9.29 76.621S28.294 84.309 35.249 77.355L49.622 62.982A17 17 0 0 0 51.758 60.353C49.121 60.895 46.383 60.906 43.692 60.428" fill="black"></path><path d="M47.502 11.717L33.127 26.091A17 17 0 0 0 30.989 28.723 21.4 21.4 0 0 1 39.054 28.648L51.743 15.959C56.357 11.344 64.197 11.674 69.217 16.694S74.567 29.552 69.951 34.167L55.578 48.541C50.963 53.156 43.125 52.827 38.104 47.807 35.967 45.67 34.689 43.022 34.272 40.33 32.412 40.523 30.657 41.289 29.293 42.652L28.764 43.181A19.54 19.54 0 0 0 33.863 52.049C41.222 59.408 52.867 59.737 59.821 52.783L74.193 38.41C81.148 31.455 80.818 19.811 73.46 12.452S54.456 4.762 47.502 11.717" fill="black"></path></g><path d="M77.001 58.611C65.954 58.611 57.001 67.566 57.001 78.611S65.954 98.613 77.001 98.613C88.047 98.613 97 89.656 97 78.611S88.047 58.611 77.001 58.611M88.751 82.732H81.354V90.16C81.354 92.496 79.46 94.387 77.125 94.387S72.896 92.496 72.896 90.16V82.732H65.498A4.23 4.23 0 0 1 65.498 74.275H72.896V66.906A4.229 4.229 0 0 1 81.354 66.906V74.275H88.751A4.23 4.23 0 0 1 88.751 82.732" fill="black"></path></g></svg></g></svg></g></svg></g><defs><mask></mask></defs></svg><rect width="395.52" height="71.2829157545061" fill="black" stroke="none" visibility="hidden"></rect></g></mask><linearGradient x1="0" x2="1" y1="0.548" y2="0.55" id="11d42264-15c2-4dc6-a7f4-f6498afecd56"><stop stop-color="#ff6cab" offset="0"></stop><stop stop-color="#7366ff" offset="1"></stop></linearGradient><rect width="395.52" height="71.2829157545061" fill="url(#11d42264-15c2-4dc6-a7f4-f6498afecd56)" mask="url(#782ccb74-0024-4f35-80df-9657e5f0d217)" data-fill-palette-color="primary"></rect><mask id="678cca93-0599-46d5-ac84-fa279de9bb47"><g id="SvgjsG1300"><svg viewBox="0 0 395.52 71.2829157545061" height="71.2829157545061" width="395.52"><g><svg viewBox="0 0 503.2374483221958 90.69638105092967" height="71.2829157545061" width="395.52"><g transform="matrix(1,0,0,1,107.71744832219584,12.534738625707362)"><svg viewBox="0 0 395.52 65.62690379951495" height="65.62690379951495" width="395.52"><g id="SvgjsG1299"><svg viewBox="0 0 395.52 65.62690379951495" height="65.62690379951495" width="395.52" id="SvgjsSvg1298"><g><svg viewBox="0 0 395.52 65.62690379951495" height="65.62690379951495" width="395.52"><g transform="matrix(1,0,0,1,0,0)"><svg width="395.52" viewBox="4.54 -39.84 241.58 40.080000000000005" height="65.62690379951495" data-palette-color="url(#11d42264-15c2-4dc6-a7f4-f6498afecd56)"></svg></g></svg></g></svg></g></svg></g><g><svg viewBox="0 0 92.22451138082154 90.69638105092967" height="90.69638105092967" width="92.22451138082154"><g><svg xmlns="http://www.w3.org/2000/svg" xmlns:xlink="http://www.w3.org/1999/xlink" version="1.1" x="0" y="0" viewBox="3.5478369431501866 6.709309064314173 93.45216305684981 91.90369093568583" enable-background="new 0 0 100 100" xml:space="preserve" height="90.69638105092967" width="92.22451138082154" class="icon-icon-0" data-fill-palette-color="accent" id="SvgjsSvg1297"><g fill="white"><g fill="white"><path d="M43.692 60.428L31.006 73.113C26.391 77.726 18.552 77.398 13.532 72.379 8.512 67.358 8.182 59.522 12.798 54.904L27.172 40.53C31.787 35.915 39.626 36.245 44.646 41.264 46.783 43.401 48.061 46.047 48.478 48.739 50.338 48.545 52.092 47.783 53.457 46.419L53.986 45.89A19.54 19.54 0 0 0 48.887 37.023C41.528 29.663 29.883 29.334 22.929 36.289L8.556 50.662C1.601 57.615 1.931 69.262 9.29 76.621S28.294 84.309 35.249 77.355L49.622 62.982A17 17 0 0 0 51.758 60.353C49.121 60.895 46.383 60.906 43.692 60.428" fill="white"></path><path d="M47.502 11.717L33.127 26.091A17 17 0 0 0 30.989 28.723 21.4 21.4 0 0 1 39.054 28.648L51.743 15.959C56.357 11.344 64.197 11.674 69.217 16.694S74.567 29.552 69.951 34.167L55.578 48.541C50.963 53.156 43.125 52.827 38.104 47.807 35.967 45.67 34.689 43.022 34.272 40.33 32.412 40.523 30.657 41.289 29.293 42.652L28.764 43.181A19.54 19.54 0 0 0 33.863 52.049C41.222 59.408 52.867 59.737 59.821 52.783L74.193 38.41C81.148 31.455 80.818 19.811 73.46 12.452S54.456 4.762 47.502 11.717" fill="white"></path></g><path d="M77.001 58.611C65.954 58.611 57.001 67.566 57.001 78.611S65.954 98.613 77.001 98.613C88.047 98.613 97 89.656 97 78.611S88.047 58.611 77.001 58.611M88.751 82.732H81.354V90.16C81.354 92.496 79.46 94.387 77.125 94.387S72.896 92.496 72.896 90.16V82.732H65.498A4.23 4.23 0 0 1 65.498 74.275H72.896V66.906A4.229 4.229 0 0 1 81.354 66.906V74.275H88.751A4.23 4.23 0 0 1 88.751 82.732" fill="white"></path></g></svg></g></svg></g></svg></g><defs><mask></mask></defs><mask><g id="SvgjsG1296"><svg viewBox="0 0 395.52 71.2829157545061" height="71.2829157545061" width="395.52"><g><svg viewBox="0 0 503.2374483221958 90.69638105092967" height="71.2829157545061" width="395.52"><g transform="matrix(1,0,0,1,107.71744832219584,12.534738625707362)"><svg viewBox="0 0 395.52 65.62690379951495" height="65.62690379951495" width="395.52"><g id="SvgjsG1295"><svg viewBox="0 0 395.52 65.62690379951495" height="65.62690379951495" width="395.52" id="SvgjsSvg1294"><g><svg viewBox="0 0 395.52 65.62690379951495" height="65.62690379951495" width="395.52"><g transform="matrix(1,0,0,1,0,0)"><svg width="395.52" viewBox="4.54 -39.84 241.58 40.080000000000005" height="65.62690379951495" data-palette-color="url(#11d42264-15c2-4dc6-a7f4-f6498afecd56)"><path d="M4.54-35.99L10.5-35.99 10.5-4.44 27.05-4.44 27.05 0 4.54 0 4.54-35.99ZM45.51-23.19L45.51-27.78Q48.14-27.54 50.27-26.37 52.39-25.2 53.9-23.34 55.42-21.48 56.22-19.09 57.03-16.7 57.03-14.11L57.03-14.11Q57.03-12.94 56.88-11.77L56.88-11.77 40.13-11.77 40.13-16.06 51.41-16.06Q51.41-17.33 51-18.51 50.58-19.68 49.78-20.68 48.97-21.68 47.9-22.36 46.82-23.05 45.51-23.19L45.51-23.19ZM45.31-4.59L45.31-4.59Q45.85-4.59 46.65-4.71 47.46-4.83 48.36-5.15 49.27-5.47 50.17-5.96 51.07-6.45 51.76-7.13L51.76-7.13 53.9-3.86Q52.29-1.86 50.14-0.83 48 0.2 44.68 0.2L44.68 0.2Q41.99 0.2 39.65-0.9 37.3-2 35.64-3.91 33.98-5.81 33.01-8.35 32.03-10.89 32.03-13.82L32.03-13.82Q32.03-16.6 32.93-19.09 33.84-21.58 35.4-23.46 36.96-25.34 39.04-26.51 41.11-27.69 43.5-27.83L43.5-27.83 43.5-23.14Q41.7-22.8 40.52-21.68 39.35-20.56 38.69-19.12 38.03-17.68 37.77-16.16 37.5-14.65 37.5-13.57L37.5-13.57Q37.5-11.67 37.96-10.03 38.43-8.4 39.4-7.2 40.38-6.01 41.82-5.3 43.26-4.59 45.31-4.59ZM69.92-8.3L69.92-8.3Q69.92-6.1 70.82-5.03 71.72-3.96 73.43-3.76L73.43-3.76 73.43 0.2Q73.24 0.24 72.8 0.24L72.8 0.24Q71.14 0.24 69.6-0.2 68.06-0.63 66.89-1.61 65.72-2.59 65.06-4.2 64.4-5.81 64.4-8.15L64.4-8.15Q64.4-10.4 65.35-12.04 66.3-13.67 67.79-14.72 69.28-15.77 71.19-16.28 73.09-16.8 75.04-16.8L75.04-16.8 77.19-16.8 77.19-13.33 76.12-13.33Q75.14-13.33 74.07-13.13 72.99-12.94 72.07-12.4 71.14-11.87 70.53-10.86 69.92-9.86 69.92-8.3ZM85.1-8.54L85.1-8.15Q85.1-7.76 85.15-7.01 85.2-6.25 85.35-5.47 85.49-4.69 85.81-4.05 86.13-3.42 86.66-3.22L86.66-3.22 85.1 0.05Q84.47 0.05 83.76-0.24 83.05-0.54 82.39-1.07 81.73-1.61 81.27-2.27 80.81-2.93 80.56-3.71L80.56-3.71Q80.07-2.49 78.63-1.54 77.19-0.59 75.43-0.15L75.43-0.15 75.43-3.86Q76.61-4.1 77.56-4.81 78.51-5.52 79.19-6.49L79.19-6.49 79.19-16.8Q79.19-19.19 78.95-20.61 78.71-22.02 78.12-22.68 77.53-23.34 76.68-23.51 75.83-23.68 74.65-23.68L74.65-23.68Q73.58-23.68 72.63-23.41 71.67-23.14 70.87-22.78 70.06-22.41 69.45-21.97 68.84-21.53 68.55-21.29L68.55-21.29 66.35-24.66Q66.84-25.2 67.82-25.76 68.79-26.32 70.06-26.76 71.33-27.2 72.82-27.47 74.31-27.73 75.92-27.73L75.92-27.73Q77.39-27.73 78.78-27.44 80.17-27.15 81.32-26.46 82.47-25.78 83.32-24.63 84.17-23.49 84.52-21.78L84.52-21.78Q84.86-20.07 84.98-18.33 85.1-16.6 85.1-14.89L85.1-14.89 85.1-8.54ZM94.43-27.54L99.7-27.54 100.33-24.71 100.33-9.77 100.33-9.67 100.33 0 94.43 0 94.43-27.54ZM102.34-21.34L102.34-26.32Q103.56-27 105.27-27.37 106.97-27.73 109.9-27.73L109.9-27.73 109.9-21.58Q108.54-21.97 106.58-22.02L106.58-22.02Q105.51-22.02 104.41-21.85 103.31-21.68 102.34-21.34L102.34-21.34ZM116.2-27.54L121.47-27.54 122.11-24.76 122.11 0 116.2 0 116.2-27.54ZM136.71-24.51L136.71-24.51Q137.54-23.68 138-22.58 138.47-21.48 138.69-20.29 138.91-19.09 138.95-17.87 139-16.65 139-15.48L139-15.48 139-0.98 139 0 133.05 0 133.05-14.99Q133.05-16.65 132.9-18.16 132.75-19.68 132.22-20.85 131.68-22.02 130.75-22.68 129.82-23.34 128.16-23.34L128.16-23.34Q127.48-23.34 126.33-23.12 125.19-22.9 124.11-22.41L124.11-22.41 124.11-26.17Q125.43-26.86 126.97-27.34 128.51-27.83 129.97-27.83L129.97-27.83Q132.17-27.83 133.68-26.93 135.2-26.03 136.71-24.51ZM147.5-35.99L153.45-35.99 153.45-4.44 170.01-4.44 170.01 0 147.5 0 147.5-35.99ZM181.58-27.54L181.58 0 175.62 0 175.62-27.54 181.58-27.54ZM182.11-36.33L182.11-36.33Q182.11-34.86 181.09-33.86 180.06-32.86 178.6-32.86L178.6-32.86Q177.13-32.86 176.13-33.89 175.13-34.91 175.13-36.33L175.13-36.33Q175.13-37.79 176.16-38.82 177.18-39.84 178.6-39.84L178.6-39.84Q180.06-39.84 181.09-38.82 182.11-37.79 182.11-36.33ZM189.88-27.54L195.15-27.54 195.78-24.76 195.78 0 189.88 0 189.88-27.54ZM210.38-24.51L210.38-24.51Q211.21-23.68 211.68-22.58 212.14-21.48 212.36-20.29 212.58-19.09 212.63-17.87 212.68-16.65 212.68-15.48L212.68-15.48 212.68-0.98 212.68 0 206.72 0 206.72-14.99Q206.72-16.65 206.57-18.16 206.43-19.68 205.89-20.85 205.35-22.02 204.43-22.68 203.5-23.34 201.84-23.34L201.84-23.34Q201.15-23.34 200.01-23.12 198.86-22.9 197.79-22.41L197.79-22.41 197.79-26.17Q199.1-26.86 200.64-27.34 202.18-27.83 203.64-27.83L203.64-27.83Q205.84-27.83 207.36-26.93 208.87-26.03 210.38-24.51ZM229.42-13.82L220.39-27.54 227.08-27.54 232.21-18.51 232.21-8.25 227.23 0 220.44 0 229.42-13.82ZM239.43-27.54L246.12-27.54 237.09-13.82 246.07 0 239.29 0 234.21-8.89 234.21-19.29 239.43-27.54Z" opacity="1" transform="matrix(1,0,0,1,0,0)" fill="black" class="wordmark-text-0" id="SvgjsPath1293"></path></svg></g></svg></g></svg></g></svg></g><g><svg viewBox="0 0 92.22451138082154 90.69638105092967" height="90.69638105092967" width="92.22451138082154"><g><svg xmlns="http://www.w3.org/2000/svg" xmlns:xlink="http://www.w3.org/1999/xlink" version="1.1" x="0" y="0" viewBox="3.5478369431501866 6.709309064314173 93.45216305684981 91.90369093568583" enable-background="new 0 0 100 100" xml:space="preserve" height="90.69638105092967" width="92.22451138082154" class="icon-icon-0" data-fill-palette-color="accent" id="SvgjsSvg1292"><g fill="black"><g fill="black"><path d="M43.692 60.428L31.006 73.113C26.391 77.726 18.552 77.398 13.532 72.379 8.512 67.358 8.182 59.522 12.798 54.904L27.172 40.53C31.787 35.915 39.626 36.245 44.646 41.264 46.783 43.401 48.061 46.047 48.478 48.739 50.338 48.545 52.092 47.783 53.457 46.419L53.986 45.89A19.54 19.54 0 0 0 48.887 37.023C41.528 29.663 29.883 29.334 22.929 36.289L8.556 50.662C1.601 57.615 1.931 69.262 9.29 76.621S28.294 84.309 35.249 77.355L49.622 62.982A17 17 0 0 0 51.758 60.353C49.121 60.895 46.383 60.906 43.692 60.428" fill="black"></path><path d="M47.502 11.717L33.127 26.091A17 17 0 0 0 30.989 28.723 21.4 21.4 0 0 1 39.054 28.648L51.743 15.959C56.357 11.344 64.197 11.674 69.217 16.694S74.567 29.552 69.951 34.167L55.578 48.541C50.963 53.156 43.125 52.827 38.104 47.807 35.967 45.67 34.689 43.022 34.272 40.33 32.412 40.523 30.657 41.289 29.293 42.652L28.764 43.181A19.54 19.54 0 0 0 33.863 52.049C41.222 59.408 52.867 59.737 59.821 52.783L74.193 38.41C81.148 31.455 80.818 19.811 73.46 12.452S54.456 4.762 47.502 11.717" fill="black"></path></g><path d="M77.001 58.611C65.954 58.611 57.001 67.566 57.001 78.611S65.954 98.613 77.001 98.613C88.047 98.613 97 89.656 97 78.611S88.047 58.611 77.001 58.611M88.751 82.732H81.354V90.16C81.354 92.496 79.46 94.387 77.125 94.387S72.896 92.496 72.896 90.16V82.732H65.498A4.23 4.23 0 0 1 65.498 74.275H72.896V66.906A4.229 4.229 0 0 1 81.354 66.906V74.275H88.751A4.23 4.23 0 0 1 88.751 82.732" fill="black"></path></g></svg></g></svg></g></svg></g><defs><mask></mask></defs></svg><rect width="395.52" height="71.2829157545061" fill="black" stroke="none" visibility="hidden"></rect></g></mask></svg><rect width="395.52" height="71.2829157545061" fill="black" stroke="none" visibility="hidden"></rect></g></mask><linearGradient x1="0" x2="1" y1="0.548" y2="0.55" id="ae29969e-c1cc-4efe-a546-a4cd42daafdb"><stop stop-color="#ff6cab" offset="0"></stop><stop stop-color="#7366ff" offset="1"></stop></linearGradient><rect width="395.52" height="71.2829157545061" fill="url(#ae29969e-c1cc-4efe-a546-a4cd42daafdb)" mask="url(#678cca93-0599-46d5-ac84-fa279de9bb47)" data-fill-palette-color="accent"></rect></svg><rect width="395.52" height="71.2829157545061" fill="none" stroke="none" visibility="hidden"></rect></g></svg></g></svg>