<svg id="visual" viewBox="0 0 900 600" width="900" height="600" xmlns="http://www.w3.org/2000/svg" xmlns:xlink="http://www.w3.org/1999/xlink" version="1.1"><path d="M0 49L25 65.2C50 81.3 100 113.7 150 108C200 102.3 250 58.7 300 48.7C350 38.7 400 62.3 450 93.7C500 125 550 164 600 162.5C650 161 700 119 750 85.2C800 51.3 850 25.7 875 12.8L900 0L900 0L875 0C850 0 800 0 750 0C700 0 650 0 600 0C550 0 500 0 450 0C400 0 350 0 300 0C250 0 200 0 150 0C100 0 50 0 25 0L0 0Z" fill="#EC2183" stroke-linecap="round" stroke-linejoin="miter"></path></svg>